<svg xmlns="http://www.w3.org/2000/svg" width="563" height="150" viewBox="0 0 563 150">
  <metadata><?xpacket begin="﻿" id="W5M0MpCehiHzreSzNTczkc9d"?>
<x:xmpmeta xmlns:x="adobe:ns:meta/" x:xmptk="Adobe XMP Core 5.6-c138 79.159824, 2016/09/14-01:09:01        ">
   <rdf:RDF xmlns:rdf="http://www.w3.org/1999/02/22-rdf-syntax-ns#">
      <rdf:Description rdf:about=""/>
   </rdf:RDF>
</x:xmpmeta>
                                                                                                    
                                                                                                    
                                                                                                    
                                                                                                    
                                                                                                    
                                                                                                    
                                                                                                    
                                                                                                    
                                                                                                    
                                                                                                    
                                                                                                    
                                                                                                    
                                                                                                    
                                                                                                    
                                                                                                    
                                                                                                    
                                                                                                    
                                                                                                    
                                                                                                    
                                                                                                    
                           
<?xpacket end="w"?></metadata>
<defs>
    <style>
      .cls-1, .cls-3 {
        fill: #fff;
      }

      .cls-1 {
        fill-rule: evenodd;
      }

      .cls-2 {
        fill: none;
        stroke: #fafafc;
        stroke-width: 9px;
      }

      .cls-3 {
        font-size: 50px;
        text-anchor: middle;
        font-family: Asap;
        font-weight: 700;
      }
    </style>
  </defs>
  <path id="CLARITY" class="cls-1" d="M194.156,106.8a46.772,46.772,0,0,0,10.395-1.1,31.764,31.764,0,0,0,7.98-2.8q3.36-1.8,3.36-3.3a7.414,7.414,0,0,0-1.365-3.2q-1.365-2.2-2.31-2.2a5.165,5.165,0,0,0-2,.9,47.653,47.653,0,0,1-7.245,2.95,29.732,29.732,0,0,1-8.82,1.15q-12.39,0-18.322-6.75T169.9,71.3q0-14.7,5.985-21.4t18.69-6.7a28.989,28.989,0,0,1,13.6,3.15,13.69,13.69,0,0,0,2.677,1.25q0.945,0,2.258-2.2a7.594,7.594,0,0,0,1.312-3.6q0-1.2-2.52-2.6a30.675,30.675,0,0,0-7.612-2.55,46.124,46.124,0,0,0-9.923-1.05q-34.02,0-34.02,35.6,0,18.3,8.243,26.95t25.567,8.65h0Zm38.534-.6h34.965a1.818,1.818,0,0,0,1.627-.7,4.243,4.243,0,0,0,.473-2.3v-1.6a4.248,4.248,0,0,0-.473-2.3,1.822,1.822,0,0,0-1.627-.7H238.78V38.2q0-2.2-4.2-2.2h-0.84q-4.2,0-4.2,2.2v65a3.061,3.061,0,0,0,.735,2.3,3.428,3.428,0,0,0,2.415.7h0Zm43.259,0.2h0.525q3.675,0,4.2-1.6l5.985-16.4h30.87l6.195,16.4q0.525,1.6,4.2,1.6h0.84q4.514,0,4.515-1.7a3.19,3.19,0,0,0-.315-1.3L308.079,37.6q-0.42-1.6-4.2-1.6h-3.045q-3.57,0-4.2,1.6l-24.885,65.7a4.6,4.6,0,0,0-.315,1.4q0,1.7,4.515,1.7h0ZM289.6,80.8L300.624,51a37.059,37.059,0,0,0,1.575-5.8h0.21a47.983,47.983,0,0,0,1.26,5.8l11.025,29.8H289.6Zm59.324,25.6h0.84q4.2,0,4.2-2.2V75.4h9.45q6.4,0,9.87,2.05t5.775,7.75l7.98,19.6a2.481,2.481,0,0,0,1.47,1.15,7.507,7.507,0,0,0,2.73.45h1.05q4.41,0,4.41-1.6a4.6,4.6,0,0,0-.315-1.4l-8.19-19.7a44.4,44.4,0,0,0-4.357-8.6,9.991,9.991,0,0,0-5.093-3.9V70.8a19.31,19.31,0,0,0,8.925-6.45,17.057,17.057,0,0,0,3.15-10.45q0-9.2-6.352-13.45T365.513,36.2h-17.64a3.437,3.437,0,0,0-2.415.7,3.069,3.069,0,0,0-.735,2.3v65q0,2.2,4.2,2.2h0Zm5.04-38.6v-24h13.125q6.615,0,10.395,2.9t3.78,8.8a11.126,11.126,0,0,1-1.785,6.1,13.194,13.194,0,0,1-4.882,4.5,13.839,13.839,0,0,1-6.773,1.7h-13.86Zm59.009,38.6h0.84q4.2,0,4.2-2.2v-66q0-2.2-4.2-2.2h-0.84q-4.2,0-4.2,2.2v66q0,2.2,4.2,2.2h0Zm43.889,0h0.84q4.2,0,4.2-2.2V43.8h19.845a1.818,1.818,0,0,0,1.627-.7,4.241,4.241,0,0,0,.473-2.3V39.2a4.249,4.249,0,0,0-.473-2.3,1.822,1.822,0,0,0-1.627-.7H432.5a1.843,1.843,0,0,0-1.575.7,3.888,3.888,0,0,0-.525,2.3v1.6a3.882,3.882,0,0,0,.525,2.3,1.839,1.839,0,0,0,1.575.7h20.16v60.4q0,2.2,4.2,2.2h0Zm57.959,0h0.84q4.2,0,4.2-2.2V70.6l22.05-31.1a3.3,3.3,0,0,0,.84-1.8,1.3,1.3,0,0,0-.945-1.2,10.051,10.051,0,0,0-3.15-.5H537.92q-3.78,0-4.725,1.4l-17.64,24.7-17.22-24.6a3,3,0,0,0-1.68-1.2,10.7,10.7,0,0,0-2.835-.3h-1.155q-4.83,0-4.83,1.7a3.292,3.292,0,0,0,.84,1.8L510.62,70.3v33.9q0,2.2,4.2,2.2h0Z"/>
  <circle id="Elipsa_1" data-name="Elipsa 1" class="cls-2" cx="78.5" cy="72.5" r="58.5"/>
  <text id="CL" class="cls-3" x="79.512" y="88.488"><tspan x="79.512">CL</tspan></text>
</svg>
